<mxfile host="app.diagrams.net" modified="2023-07-24T10:11:44.798Z" agent="Mozilla/5.0 (X11; Ubuntu; Linux x86_64; rv:109.0) Gecko/20100101 Firefox/113.0" etag="pUjuq7RU3k80_VKWssqv" version="21.6.2">
  <diagram name="Page-1" id="OnH2HxPvch0l8OaRGnw7">
    <mxGraphModel dx="777" dy="528" grid="1" gridSize="2" guides="1" tooltips="1" connect="1" arrows="1" fold="1" page="1" pageScale="1" pageWidth="827" pageHeight="1169" math="0" shadow="0">
      <root>
        <mxCell id="0" />
        <mxCell id="1" parent="0" />
        <mxCell id="ZuR12X2DeIc08mKDCGFn-1" value="" style="group" vertex="1" connectable="0" parent="1">
          <mxGeometry x="140" y="239.9951912721358" width="68.32041281149714" height="78.88961745572846" as="geometry" />
        </mxCell>
        <mxCell id="RdYYO0UL_oksXpyvxEGz-2" value="" style="rounded=1;whiteSpace=wrap;html=1;rotation=-60;" parent="ZuR12X2DeIc08mKDCGFn-1" vertex="1">
          <mxGeometry y="23.1948087278642" width="72.33" height="32.5" as="geometry" />
        </mxCell>
        <mxCell id="RdYYO0UL_oksXpyvxEGz-11" value="a&lt;sub&gt;x&lt;/sub&gt;" style="text;html=1;strokeColor=none;fillColor=none;align=center;verticalAlign=middle;whiteSpace=wrap;rounded=0;" parent="ZuR12X2DeIc08mKDCGFn-1" vertex="1">
          <mxGeometry y="34.4448087278642" width="60" height="30" as="geometry" />
        </mxCell>
        <mxCell id="RdYYO0UL_oksXpyvxEGz-19" value="" style="shape=orEllipse;perimeter=ellipsePerimeter;whiteSpace=wrap;html=1;backgroundOutline=1;" parent="ZuR12X2DeIc08mKDCGFn-1" vertex="1">
          <mxGeometry x="31.160000000000025" y="34.4448087278642" width="10" height="10" as="geometry" />
        </mxCell>
        <mxCell id="ZuR12X2DeIc08mKDCGFn-6" value="" style="endArrow=none;html=1;curved=1;endFill=0;fillColor=#f8cecc;strokeColor=#b85450;dashed=1;dashPattern=12 12;strokeWidth=3;" edge="1" parent="1">
          <mxGeometry width="50" height="50" relative="1" as="geometry">
            <mxPoint x="240" y="420" as="sourcePoint" />
            <mxPoint x="400" y="200" as="targetPoint" />
            <Array as="points">
              <mxPoint x="240" y="380" />
              <mxPoint x="270" y="310" />
              <mxPoint x="280" y="288.88" />
              <mxPoint x="340" y="210" />
            </Array>
          </mxGeometry>
        </mxCell>
        <mxCell id="ZuR12X2DeIc08mKDCGFn-7" value="Frenet Curve" style="text;whiteSpace=wrap;html=1;" vertex="1" parent="1">
          <mxGeometry x="302" y="304" width="50" height="40" as="geometry" />
        </mxCell>
        <mxCell id="ZuR12X2DeIc08mKDCGFn-8" value="" style="endArrow=none;html=1;rounded=0;exitX=0.556;exitY=0.478;exitDx=0;exitDy=0;exitPerimeter=0;fillColor=#f8cecc;strokeColor=#b85450;strokeWidth=1;endFill=0;startArrow=classic;startFill=1;" edge="1" parent="1" source="RdYYO0UL_oksXpyvxEGz-19">
          <mxGeometry width="50" height="50" relative="1" as="geometry">
            <mxPoint x="190" y="310" as="sourcePoint" />
            <mxPoint x="260" y="330" as="targetPoint" />
          </mxGeometry>
        </mxCell>
        <mxCell id="ZuR12X2DeIc08mKDCGFn-11" value="e&lt;sub&gt;y&lt;/sub&gt;" style="text;whiteSpace=wrap;html=1;" vertex="1" parent="1">
          <mxGeometry x="218.32" y="278.88" width="50" height="40" as="geometry" />
        </mxCell>
        <mxCell id="ZuR12X2DeIc08mKDCGFn-12" value="" style="endArrow=none;html=1;rounded=0;fillColor=#f8cecc;strokeColor=#b85450;strokeWidth=1;exitX=0.556;exitY=0.534;exitDx=0;exitDy=0;exitPerimeter=0;" edge="1" parent="1" source="RdYYO0UL_oksXpyvxEGz-19">
          <mxGeometry width="50" height="50" relative="1" as="geometry">
            <mxPoint x="132" y="382" as="sourcePoint" />
            <mxPoint x="220" y="180" as="targetPoint" />
          </mxGeometry>
        </mxCell>
        <mxCell id="ZuR12X2DeIc08mKDCGFn-14" value="" style="endArrow=none;html=1;rounded=0;fillColor=#fff2cc;strokeColor=#d6b656;" edge="1" parent="1">
          <mxGeometry width="50" height="50" relative="1" as="geometry">
            <mxPoint x="176" y="280.88" as="sourcePoint" />
            <mxPoint x="232" y="188" as="targetPoint" />
          </mxGeometry>
        </mxCell>
        <mxCell id="ZuR12X2DeIc08mKDCGFn-25" value="e&lt;sub&gt;th&lt;/sub&gt;" style="text;whiteSpace=wrap;html=1;" vertex="1" parent="1">
          <mxGeometry x="222" y="160" width="50" height="40" as="geometry" />
        </mxCell>
        <mxCell id="ZuR12X2DeIc08mKDCGFn-27" value="" style="verticalLabelPosition=bottom;verticalAlign=top;html=1;shape=mxgraph.basic.arc;startAngle=0.14064078543787573;endAngle=0.17259165597317536;rotation=-30;" vertex="1" parent="1">
          <mxGeometry x="116" y="188" width="144" height="142" as="geometry" />
        </mxCell>
      </root>
    </mxGraphModel>
  </diagram>
</mxfile>
